<?xml version="1.0" standalone="no"?>
<!DOCTYPE svg PUBLIC "-//W3C//DTD SVG 20010904//EN"
 "http://www.w3.org/TR/2001/REC-SVG-20010904/DTD/svg10.dtd">
<svg version="1.0" xmlns="http://www.w3.org/2000/svg"
 width="1545.000000pt" height="2000.000000pt" viewBox="0 0 1545.000000 2000.000000"
 preserveAspectRatio="xMidYMid meet">

<g transform="translate(0.000000,2000.000000) scale(0.100000,-0.100000)"
fill="#000000" stroke="none">
<path d="M7942 16716 c-116 -38 -172 -119 -172 -246 0 -63 21 -115 80 -201
l40 -58 -72 -42 c-147 -86 -202 -172 -201 -314 0 -91 30 -162 90 -215 70 -61
137 -83 276 -88 103 -4 127 -1 188 18 39 13 98 41 132 63 l61 39 30 -33 c108
-124 95 -115 190 -122 47 -3 86 -5 86 -3 0 2 -47 57 -105 122 l-105 118 34 36
c19 19 48 58 64 85 30 50 96 204 90 210 -2 2 -31 5 -66 6 l-63 3 -35 -80 c-34
-80 -81 -155 -99 -161 -9 -2 -285 296 -293 317 -2 4 21 22 51 39 124 71 185
149 194 250 14 159 -87 259 -272 267 -51 3 -95 -1 -123 -10z m182 -110 c65
-27 96 -93 76 -165 -14 -54 -57 -102 -131 -146 l-59 -36 -25 28 c-41 46 -85
142 -85 185 0 21 6 54 14 73 27 63 131 94 210 61z m15 -680 c78 -88 141 -163
141 -167 0 -17 -149 -80 -212 -90 -124 -19 -242 20 -285 96 -43 76 -24 205 38
262 13 12 51 38 84 57 56 35 60 35 76 19 9 -10 80 -90 158 -177z"/>
<path d="M6496 16198 c-3 -13 1 -59 8 -103 8 -44 17 -117 20 -162 l5 -82 -40
-12 c-36 -11 -40 -15 -34 -38 10 -38 24 -51 56 -51 30 0 32 -6 43 -175 12
-177 16 -193 49 -205 16 -5 32 -10 35 -10 2 0 2 26 -2 58 -5 51 -26 302 -28
327 -2 35 -1 35 137 81 39 13 75 24 82 24 12 0 47 -99 38 -108 -3 -3 0 -11 6
-18 6 -8 9 -21 5 -29 -3 -8 -1 -15 5 -15 6 0 9 -6 6 -13 -8 -21 19 -157 34
-172 8 -7 25 -16 38 -20 21 -6 23 -5 17 22 -3 15 -10 62 -15 103 -9 65 -31
186 -48 257 -4 18 1 23 36 33 28 7 47 8 60 1 18 -10 18 -8 9 31 -5 24 -11 44
-13 46 -2 2 -27 -1 -56 -7 -28 -6 -54 -9 -57 -6 -3 2 -17 57 -31 122 -24 109
-28 118 -53 127 -15 5 -30 7 -33 4 -4 -3 6 -65 21 -137 14 -73 24 -134 22
-137 -7 -7 -136 -41 -184 -49 l-41 -6 -12 78 c-7 43 -17 104 -23 135 -6 31 -8
69 -6 83 4 18 0 29 -13 35 -27 15 -36 12 -43 -12z"/>
<path d="M9325 15997 c-7 -18 -48 -145 -90 -282 -42 -138 -90 -273 -106 -302
-24 -43 -26 -52 -13 -57 37 -14 59 -5 81 32 20 35 31 71 68 207 18 66 76 221
99 264 21 40 36 28 36 -31 0 -48 25 -168 46 -215 18 -44 54 -175 86 -315 l23
-98 33 0 c18 0 34 6 37 13 51 161 179 445 214 478 10 10 31 42 45 71 15 29 36
68 48 87 21 33 21 34 3 47 -26 19 -54 17 -62 -3 -4 -10 -19 -38 -34 -63 -81
-133 -162 -291 -195 -375 -29 -77 -47 -115 -55 -115 -3 0 -13 21 -22 48 -9 26
-39 102 -66 170 -28 68 -51 132 -51 143 0 10 -4 19 -9 19 -5 0 -11 24 -14 53
-3 28 -10 80 -17 114 -7 42 -8 73 -2 97 12 42 9 46 -35 46 -29 0 -36 -5 -48
-33z"/>
<path d="M6012 15975 c-89 -55 -182 -159 -182 -204 0 -31 59 -99 108 -122 39
-19 72 -25 199 -32 84 -4 170 -14 190 -21 32 -11 38 -18 41 -45 3 -28 -3 -39
-40 -73 -74 -70 -263 -178 -310 -178 -10 0 -18 -4 -18 -8 0 -16 46 -52 66 -51
25 0 183 81 184 94 0 6 6 11 13 11 6 1 17 2 23 3 5 0 19 9 30 19 10 9 36 30
57 45 38 29 67 73 67 103 0 26 -38 77 -77 104 -50 34 -124 50 -258 56 -216 9
-236 20 -194 101 28 55 135 159 173 169 13 3 34 3 45 -1 17 -5 20 -3 14 12 -8
23 -44 53 -63 52 -8 0 -39 -16 -68 -34z"/>
<path d="M5695 15658 c-11 -6 -21 -12 -23 -13 -1 -1 12 -33 29 -71 17 -38 37
-85 44 -104 21 -57 127 -294 134 -303 9 -9 71 12 71 24 0 5 -16 42 -35 83 -19
41 -35 78 -35 81 0 3 -17 42 -39 88 -21 45 -53 115 -71 155 -34 74 -41 79 -75
60z"/>
<path d="M5361 15640 c-78 -17 -144 -42 -209 -82 -64 -39 -82 -45 -82 -28 0
15 -56 12 -69 -4 -10 -12 -9 -20 5 -41 16 -25 16 -26 -35 -80 -28 -29 -51 -56
-51 -59 0 -3 11 -6 25 -6 15 0 41 15 65 36 33 30 42 34 53 22 7 -7 53 -73 102
-147 l89 -134 -34 -30 -34 -30 44 6 c51 7 52 5 107 -96 30 -58 40 -68 57 -63
12 3 27 6 34 6 22 0 13 22 -44 117 -57 95 -60 109 -21 141 15 13 133 0 299
-32 75 -14 148 -12 148 5 0 14 -88 33 -295 64 -95 14 -99 19 -60 77 14 20 25
44 25 52 0 8 6 19 14 23 28 17 56 92 60 160 2 60 0 69 -23 94 -30 33 -97 44
-170 29z m94 -34 c65 -65 47 -164 -59 -321 -62 -93 -103 -116 -123 -72 -6 13
-28 44 -49 69 -41 48 -47 56 -94 131 -35 56 -36 59 -11 81 11 10 17 24 14 32
-3 9 2 14 17 14 12 0 48 14 80 31 115 61 187 73 225 35z"/>
<path d="M10155 15525 c-151 -29 -208 -53 -272 -115 -47 -46 -83 -128 -83
-188 1 -82 67 -180 151 -223 50 -25 70 -29 138 -29 75 0 141 12 218 40 59 21
183 182 183 237 0 36 -30 103 -77 172 -24 35 -43 67 -43 71 0 16 -50 39 -96
44 -27 3 -80 -1 -119 -9z m185 -60 c26 -8 26 -32 0 -40 -28 -9 -17 -21 24 -29
38 -7 82 -51 92 -93 10 -38 -12 -95 -61 -162 -71 -96 -131 -126 -273 -137
-134 -10 -219 23 -258 98 -46 90 39 263 160 325 74 38 249 59 316 38z"/>
<path d="M10689 15284 c-24 -32 -71 -89 -104 -128 -124 -145 -195 -266 -195
-331 0 -65 86 -179 155 -205 33 -13 167 -4 200 13 11 5 29 19 40 29 25 24 155
108 167 108 4 0 6 11 2 24 -3 13 -1 27 5 30 6 4 11 2 11 -4 0 -6 6 -17 13 -25
12 -11 17 -10 30 6 10 11 17 23 17 27 0 4 18 26 40 47 22 21 40 45 40 52 0 7
4 13 10 13 15 0 31 75 24 117 -6 40 -48 102 -60 90 -4 -4 -1 -31 6 -61 10 -41
10 -61 1 -88 -18 -55 -137 -184 -203 -219 -10 -5 -15 -15 -12 -21 4 -6 3 -8
-4 -4 -6 3 -27 -3 -47 -14 -19 -11 -42 -20 -50 -20 -8 0 -15 -4 -15 -9 0 -19
-138 -43 -208 -36 -76 8 -99 23 -108 72 -19 100 91 279 314 510 28 30 27 34
-1 61 l-24 22 -44 -56z"/>
<path d="M4623 15294 c-52 -22 -39 -34 36 -34 65 0 70 -2 110 -37 22 -21 56
-63 74 -94 32 -55 33 -55 65 -45 l32 11 -27 30 c-16 16 -40 49 -55 72 -15 24
-32 43 -38 43 -5 0 -10 7 -10 15 0 21 -76 55 -120 54 -19 0 -50 -7 -67 -15z"/>
<path d="M7530 15220 c-352 -23 -622 -68 -980 -165 -762 -205 -1484 -679
-1986 -1304 -350 -434 -596 -961 -703 -1501 -59 -297 -55 -70 -58 -3102 l-3
-2778 3925 0 3925 0 0 2668 c0 1723 -4 2715 -10 2802 -65 849 -448 1645 -1091
2264 -562 541 -1271 905 -2049 1050 -294 55 -704 83 -970 66z m465 -70 c743
-55 1351 -258 1955 -655 219 -143 387 -281 596 -490 181 -181 314 -338 436
-515 276 -401 462 -849 548 -1320 51 -278 50 -214 50 -3067 l0 -2663 -3855 0
-3855 0 3 2753 3 2752 22 128 c89 531 255 960 535 1382 148 222 265 364 466
565 300 298 660 552 1053 739 608 291 1384 439 2043 391z"/>
<path d="M7450 14853 c-203 -15 -537 -75 -763 -137 -549 -152 -1117 -483
-1511 -881 -456 -461 -762 -1033 -871 -1626 -52 -282 -49 -112 -52 -2896 l-4
-2583 3476 0 3476 0 -4 2573 c-3 2320 -5 2584 -20 2692 -94 690 -377 1274
-863 1784 -589 618 -1395 996 -2279 1071 -110 9 -478 11 -585 3z m670 -78
c153 -17 376 -56 495 -86 490 -123 984 -374 1373 -696 107 -89 323 -305 420
-418 337 -397 566 -870 666 -1375 52 -259 49 -142 53 -2852 l4 -2548 -3406 0
-3405 0 0 2478 c0 1561 4 2521 10 2597 15 180 37 313 80 486 257 1032 1057
1871 2135 2239 310 105 686 178 1000 193 128 6 446 -4 575 -18z"/>
<path d="M6576 12425 c-114 -115 -174 -348 -147 -570 7 -53 10 -99 8 -102 -3
-2 -34 -11 -70 -19 -86 -20 -148 -61 -183 -120 -23 -38 -28 -62 -32 -128 -4
-96 17 -170 74 -248 19 -27 34 -52 32 -54 -2 -2 -29 -14 -60 -28 -30 -13 -86
-43 -123 -66 -37 -23 -71 -38 -75 -33 -4 4 -37 172 -74 373 -37 201 -74 375
-82 387 -22 34 -70 55 -107 47 -58 -12 -191 -76 -277 -132 -202 -131 -361
-349 -445 -610 -23 -69 -25 -86 -16 -115 21 -64 37 -71 386 -168 182 -50 331
-92 333 -93 1 -2 -18 -45 -42 -97 -25 -52 -48 -106 -51 -122 -4 -15 -25 -41
-49 -59 -163 -125 -225 -241 -212 -399 19 -232 137 -464 338 -667 194 -197
429 -330 683 -386 95 -21 101 -24 117 -57 40 -77 11 -212 -53 -245 -31 -15
-33 -15 -46 2 -7 10 -13 28 -13 40 0 12 -9 33 -21 48 -17 21 -29 26 -66 26
-42 0 -49 4 -90 49 -28 31 -67 59 -106 77 -57 27 -71 29 -182 29 -98 0 -134
-4 -195 -23 -293 -92 -545 -328 -660 -618 -65 -162 -77 -345 -31 -465 23 -60
82 -135 124 -158 19 -10 26 -24 31 -62 7 -50 40 -89 76 -89 10 0 44 -16 76
-35 32 -19 63 -35 70 -35 6 0 15 -21 19 -47 7 -52 28 -83 54 -83 9 0 35 -10
56 -21 96 -52 118 -59 184 -69 230 -32 555 118 741 342 60 72 94 78 41 7 -36
-49 -39 -76 -12 -110 10 -13 21 -43 24 -67 25 -197 282 -385 596 -437 439 -74
910 150 967 460 4 22 15 53 26 70 25 41 23 56 -13 101 -21 27 -28 44 -24 59 4
11 11 43 17 70 6 28 19 59 29 71 11 11 19 26 19 33 0 7 6 11 14 8 8 -3 258
-191 555 -417 297 -226 558 -418 578 -427 63 -26 136 -20 248 22 402 150 689
393 835 707 42 90 50 161 50 445 0 232 2 259 23 330 21 73 22 96 22 373 0 319
-7 381 -52 459 -19 33 -38 49 -82 70 -56 26 -58 26 -293 26 l-237 0 26 34 c46
60 30 113 -37 127 -91 18 -91 13 -8 76 88 68 178 160 178 183 0 39 -33 27 -98
-37 -60 -58 -144 -128 -154 -128 -2 0 -2 20 0 46 6 75 -50 108 -118 69 -39
-22 -47 -18 -52 30 -7 55 -30 93 -64 101 -48 12 -97 -35 -132 -129 -10 -26
-20 -48 -23 -51 -3 -3 -27 1 -54 9 -97 30 -170 17 -265 -47 -70 -46 -152 -140
-210 -239 l-39 -66 -213 -6 c-117 -4 -337 -10 -488 -13 -158 -4 -280 -11 -287
-16 -10 -8 -13 -112 -13 -459 0 -247 -3 -449 -7 -449 -5 0 -31 9 -60 20 -84
32 -244 60 -342 60 -79 0 -95 3 -126 24 -19 14 -68 36 -108 51 -39 15 -92 34
-117 44 -29 10 -50 27 -62 48 -25 41 -33 118 -19 170 19 70 50 97 153 132 413
143 775 526 855 906 21 100 14 236 -16 297 -30 63 -89 136 -143 176 -37 27
-48 43 -62 92 -10 33 -35 94 -57 136 l-38 77 299 620 c165 341 300 623 300
628 0 5 -13 23 -30 42 -51 58 -221 124 -258 99 -6 -4 -132 -255 -278 -558
-146 -302 -268 -551 -270 -554 -3 -2 -13 1 -22 8 -124 87 -282 163 -400 192
l-42 11 29 43 c38 54 71 153 71 208 0 133 -85 279 -192 332 -75 37 -152 36
-237 -4 -41 -19 -68 -27 -74 -21 -18 18 -20 260 -3 340 18 86 60 179 105 235
17 22 30 47 29 55 -4 22 -33 25 -52 6z m1451 -366 c26 -11 62 -31 80 -45 l32
-24 -52 -111 c-35 -77 -58 -114 -73 -119 -42 -16 -244 -63 -249 -58 -3 2 36
89 85 191 70 145 95 187 109 187 11 0 41 -9 68 -21z m-2287 -301 c-17 -29 -52
-93 -77 -143 -25 -49 -46 -91 -47 -92 -3 -3 -199 67 -205 73 -25 24 102 117
247 180 111 48 120 46 82 -18z m1057 -4 c46 -27 78 -64 114 -134 19 -37 24
-61 24 -130 0 -75 -4 -92 -30 -144 -34 -67 -97 -127 -172 -164 l-52 -26 -118
28 c-75 17 -140 27 -176 25 -51 -2 -60 0 -88 27 -16 16 -44 57 -61 92 -26 52
-31 75 -32 135 0 61 4 80 26 118 34 58 61 76 151 98 75 20 87 17 87 -21 0 -14
-8 -18 -34 -18 -41 0 -65 -23 -46 -45 25 -31 126 -14 191 31 44 30 55 52 35
72 -12 13 -19 11 -50 -13 -36 -28 -37 -28 -49 15 -2 9 11 24 37 39 96 56 166
60 243 15z m-957 -165 c15 -85 27 -155 26 -156 -3 -3 -163 54 -182 65 -9 5 -2
29 28 87 53 106 89 168 94 162 3 -2 18 -73 34 -158z m2150 95 c0 -3 -43 -94
-95 -203 l-95 -196 -96 -22 c-52 -12 -113 -24 -135 -28 l-39 -7 74 154 c118
246 119 248 141 253 11 3 65 15 120 29 111 26 125 29 125 20z m-2500 -178 c50
-19 94 -37 96 -39 2 -2 -11 -44 -30 -93 -19 -49 -44 -121 -56 -161 l-21 -71
-67 19 c-37 11 -86 24 -110 30 -23 7 -45 15 -47 19 -9 15 118 330 133 330 5 0
51 -15 102 -34z m-219 -78 c-21 -52 -46 -118 -55 -146 -14 -42 -22 -52 -39
-52 -34 0 -50 15 -43 38 17 51 163 269 173 258 2 -2 -14 -45 -36 -98z m504
-24 c83 -30 104 -41 99 -54 -7 -18 -68 -233 -78 -271 l-6 -26 -125 35 c-97 28
-125 40 -125 53 0 15 58 190 92 277 7 18 18 30 25 28 6 -3 59 -22 118 -42z
m170 -392 c-7 -9 -95 24 -95 36 0 18 40 174 48 187 3 5 16 -42 27 -105 12 -63
21 -116 20 -118z m1726 6 c-90 -188 -112 -217 -138 -181 -8 9 -39 44 -70 76
l-56 58 45 96 44 97 130 26 c71 14 130 22 132 19 1 -3 -38 -89 -87 -191z
m-2507 152 c6 -6 5 -24 -2 -47 -6 -21 -18 -63 -27 -94 -14 -49 -19 -56 -36
-52 -11 3 -28 17 -36 30 -14 21 -15 32 -5 70 7 24 19 60 27 80 13 31 18 34 42
28 16 -3 32 -10 37 -15z m185 -50 c57 -16 106 -31 108 -34 3 -2 -5 -48 -18
-101 -18 -78 -25 -96 -38 -92 -9 3 -62 17 -118 32 -57 16 -103 33 -103 39 0
10 35 144 45 174 6 16 5 16 124 -18z m1229 3 l112 -27 0 -32 c0 -32 12 -53
138 -233 64 -92 90 -154 72 -176 -34 -41 -77 -15 -288 174 -90 80 -185 161
-210 178 -54 39 -140 73 -184 73 -42 0 -28 13 47 44 82 34 168 34 313 -1z
m324 3 c67 -20 107 -51 269 -210 144 -142 181 -168 195 -132 3 8 -58 77 -163
180 -168 168 -173 176 -61 120 152 -76 326 -236 407 -371 155 -262 185 -573
79 -846 -33 -87 -40 -93 -155 -141 -372 -157 -941 -190 -1400 -81 -104 25
-280 86 -320 111 -12 8 -34 47 -53 96 -140 361 -63 751 203 1025 l71 74 13
-53 c19 -74 63 -137 178 -258 159 -167 200 -246 155 -302 -52 -67 -155 -34
-299 98 -83 75 -145 113 -188 114 -38 0 -81 -46 -88 -94 -8 -50 8 -89 33 -84
12 2 18 17 22 52 8 81 52 87 131 17 l44 -38 -33 -28 c-18 -15 -42 -35 -54 -45
-24 -19 -19 -50 9 -50 10 0 40 18 68 39 27 22 54 37 60 33 5 -3 31 -21 56 -39
118 -84 225 -87 288 -7 15 19 21 41 21 76 0 77 -46 151 -178 291 -167 177
-205 257 -147 311 59 55 157 57 257 4 47 -25 304 -238 322 -267 3 -4 -17 -22
-44 -39 -34 -21 -50 -38 -50 -52 0 -30 36 -26 90 10 25 16 48 30 52 30 4 0 28
-16 53 -35 51 -38 114 -60 148 -49 73 22 87 94 37 189 -16 31 -63 102 -104
158 -80 110 -96 148 -75 173 29 35 80 42 151 20z m-1234 -97 l114 -33 -7 -30
c-3 -17 -9 -59 -12 -94 -3 -34 -10 -65 -14 -68 -5 -2 -69 12 -142 32 l-134 37
18 86 c24 110 26 113 46 107 10 -3 69 -20 131 -37z m225 -68 c4 -4 -9 -22 -28
-41 -19 -18 -37 -32 -39 -29 -3 2 -2 24 1 47 5 41 7 43 32 37 14 -4 29 -10 34
-14z m-310 -598 c-4 -21 -7 -92 -7 -158 0 -122 16 -220 54 -331 11 -30 15 -54
10 -54 -4 0 -30 17 -57 38 -149 119 -198 252 -138 380 23 50 118 162 137 162
5 0 6 -16 1 -37z m2257 -105 c51 -96 45 -190 -19 -283 -32 -48 -128 -141 -137
-132 -2 1 8 37 21 79 34 107 49 234 41 358 l-6 105 41 -45 c22 -25 49 -61 59
-82z m1645 -407 c16 -86 37 -97 116 -61 24 10 47 16 52 11 4 -4 -2 -38 -14
-76 -31 -102 -15 -122 114 -140 50 -7 57 -14 30 -36 -28 -24 -73 -91 -73 -110
0 -10 14 -35 32 -55 31 -35 31 -37 13 -50 -26 -19 -44 -18 -104 7 -39 17 -53
28 -57 48 -22 102 -85 220 -165 305 l-59 64 15 42 c24 67 58 121 74 118 10 -2
19 -25 26 -67z m-3895 -68 c268 -183 776 -288 1230 -254 430 33 759 141 966
317 l54 46 -14 -39 c-90 -254 -353 -536 -633 -677 -189 -94 -334 -129 -538
-130 -163 0 -231 10 -370 55 -186 59 -354 161 -508 308 -123 118 -201 222
-266 352 -63 125 -65 144 -8 92 23 -21 62 -53 87 -70z m3715 -58 c142 -83 265
-327 235 -469 -28 -134 -128 -199 -351 -227 -217 -28 -397 38 -428 156 -20 78
17 212 91 326 148 232 301 304 453 214z m977 -316 c20 -5 50 -23 66 -39 51
-50 57 -100 57 -445 0 -295 -1 -314 -23 -382 -42 -133 -101 -175 -273 -194
-237 -26 -304 -88 -368 -341 -33 -128 -50 -169 -90 -211 -65 -71 -173 -89
-232 -40 -54 46 -61 77 -70 303 -4 113 -13 230 -19 260 -18 82 -58 159 -109
210 -30 29 -272 184 -688 440 -514 316 -638 396 -620 401 13 3 201 9 419 14
l397 7 -15 -48 c-20 -66 -18 -160 5 -209 49 -109 180 -165 382 -165 251 0 435
87 483 228 9 25 16 58 16 74 0 32 5 33 40 13 38 -21 116 -19 150 5 35 25 46
64 25 96 -8 13 -15 26 -15 28 0 7 297 13 380 8 36 -2 82 -8 102 -13z m-1801
-474 c354 -218 659 -408 678 -422 42 -32 87 -103 107 -168 21 -65 35 -359 40
-857 3 -263 2 -388 -5 -388 -6 0 -59 37 -118 82 -60 45 -329 249 -598 454
l-491 372 0 74 c0 61 -5 84 -30 138 -39 81 -107 157 -190 212 l-64 42 0 434
c0 364 2 433 14 429 7 -3 303 -184 657 -402z m-1617 48 c-13 -32 -17 -175 -5
-215 19 -63 68 -103 163 -132 46 -15 94 -33 108 -40 l25 -14 -30 -7 c-164 -38
-258 -75 -362 -144 l-73 -49 -24 47 c-14 26 -32 53 -40 60 -9 8 -16 26 -16 41
0 47 -28 70 -92 77 -46 5 -57 9 -62 27 -3 11 -2 22 2 24 91 31 138 159 109
296 l-8 39 43 -5 c24 -3 79 -2 123 2 142 13 148 12 139 -7z m-802 -68 c184
-63 210 -278 65 -538 -123 -219 -365 -461 -567 -566 -138 -72 -261 -91 -346
-52 -53 24 -107 89 -127 152 -37 114 -15 305 52 454 174 384 623 652 923 550z
m271 -185 c15 -82 15 -173 0 -208 -8 -18 -11 -41 -8 -52 4 -13 -1 -30 -14 -46
-12 -15 -21 -40 -21 -55 0 -16 -9 -38 -20 -49 -11 -11 -23 -34 -26 -50 -4 -16
-17 -39 -30 -51 -13 -12 -24 -31 -24 -40 0 -10 -16 -34 -35 -53 -19 -20 -35
-42 -35 -49 0 -8 -16 -27 -35 -41 -19 -15 -35 -34 -35 -42 0 -8 -14 -23 -31
-33 -17 -11 -39 -33 -50 -50 -10 -17 -25 -31 -33 -31 -8 0 -27 -16 -42 -35
-14 -19 -34 -35 -44 -35 -10 0 -30 -13 -43 -30 -14 -16 -35 -30 -47 -30 -11 0
-33 -12 -47 -26 -14 -14 -40 -28 -57 -31 -17 -3 -40 -13 -52 -24 -12 -11 -35
-19 -55 -19 -19 0 -41 -6 -48 -12 -6 -7 -33 -14 -59 -15 -26 -1 -56 -2 -67 -3
-11 0 -42 3 -70 7 -44 7 -50 11 -53 34 -3 26 -2 26 45 22 161 -15 397 110 613
327 244 244 385 515 367 707 l-6 64 27 -3 c23 -3 28 -9 35 -48z m98 -277 c1
-212 -118 -444 -334 -650 -111 -105 -223 -178 -346 -224 -78 -30 -97 -33 -198
-33 -77 -1 -116 3 -124 12 -11 10 -5 12 27 10 22 0 51 5 64 13 14 7 40 14 58
15 18 1 43 11 55 23 13 11 35 21 49 21 14 0 36 11 49 23 13 13 39 29 57 35 19
6 43 23 54 37 11 14 26 25 35 25 8 0 28 14 45 32 16 18 40 37 51 43 12 6 31
25 42 42 11 18 24 32 29 33 15 0 56 42 56 56 0 6 16 24 35 38 19 15 35 33 35
41 0 8 16 30 35 49 19 20 35 44 35 55 0 11 8 26 18 33 24 16 42 51 42 77 0 11
6 24 14 28 19 11 36 47 36 76 0 14 7 30 15 37 8 7 15 29 15 50 0 20 7 51 16
69 10 19 13 43 10 64 -5 29 -5 28 10 -8 9 -24 15 -73 15 -122z m119 67 c0 -17
7 -44 15 -60 11 -21 12 -36 5 -54 -6 -17 -6 -35 0 -51 7 -19 6 -32 -5 -49 -9
-13 -15 -40 -13 -59 1 -23 -4 -43 -15 -55 -9 -10 -17 -32 -17 -49 0 -17 -8
-38 -20 -48 -11 -10 -22 -32 -26 -51 -3 -18 -17 -42 -30 -55 -13 -12 -24 -32
-24 -45 0 -12 -11 -29 -25 -38 -14 -9 -31 -32 -39 -50 -8 -19 -23 -37 -34 -40
-11 -4 -25 -20 -32 -36 -7 -16 -27 -38 -46 -49 -19 -11 -34 -27 -34 -35 0 -9
-18 -25 -39 -36 -22 -11 -42 -28 -46 -39 -3 -11 -21 -25 -40 -31 -18 -6 -41
-22 -49 -36 -10 -14 -26 -24 -39 -24 -13 0 -34 -11 -47 -25 -14 -15 -35 -25
-50 -25 -15 0 -39 -9 -53 -20 -14 -11 -38 -20 -54 -20 -16 0 -38 -7 -49 -15
-12 -9 -32 -12 -55 -8 -20 3 -46 0 -58 -7 -17 -9 -26 -9 -37 1 -8 7 -34 13
-57 13 -38 1 -42 4 -45 27 -3 26 -2 26 80 32 307 22 647 275 817 609 74 143
95 221 95 350 l1 108 33 0 c29 0 32 -3 32 -30z m980 -7 c268 -53 489 -227 507
-397 8 -75 -16 -134 -77 -195 -235 -235 -993 -259 -1271 -40 l-37 29 26 77
c20 62 26 105 30 206 l4 128 51 40 c185 147 490 207 767 152z m-876 -298 c0
-189 -68 -360 -213 -539 -175 -216 -464 -361 -683 -343 -82 7 -129 27 -56 24
33 -1 53 4 67 17 11 10 25 15 31 11 15 -9 55 2 74 21 9 9 31 18 49 21 17 2 43
16 58 29 14 13 33 24 43 24 10 0 30 13 44 28 15 16 40 32 55 36 16 4 36 19 45
36 9 16 27 32 40 35 12 3 31 19 41 36 11 17 30 36 43 43 12 6 30 25 38 42 8
17 24 35 35 40 11 5 27 24 36 42 9 18 29 44 43 57 14 13 26 32 26 41 0 9 14
32 30 51 17 18 30 43 30 55 0 12 9 32 21 44 12 13 22 36 24 52 1 16 9 40 18
53 10 13 17 42 17 66 0 23 5 45 11 49 7 4 9 25 6 53 l-4 46 15 -35 c11 -24 16
-66 16 -135z m3706 -63 c0 -243 -7 -287 -64 -399 -141 -280 -421 -506 -784
-637 -88 -31 -127 -33 -142 -7 -8 17 -16 611 -7 611 1 0 24 -11 51 -25 89 -45
188 -25 269 53 53 51 74 95 108 229 38 148 63 206 107 244 50 44 84 56 200 69
116 13 186 31 222 60 14 11 28 20 33 20 4 0 7 -98 7 -218z m-2292 -279 c-14
-16 -28 -37 -30 -48 -2 -11 -15 -26 -30 -33 -15 -7 -37 -26 -48 -42 -12 -17
-30 -30 -40 -30 -10 0 -28 -11 -41 -25 -13 -13 -33 -25 -45 -25 -12 0 -38 -11
-58 -25 -21 -14 -42 -23 -47 -19 -5 3 -30 -4 -54 -16 -25 -12 -51 -20 -57 -17
-7 2 -28 -2 -46 -9 -19 -8 -51 -13 -71 -12 -21 0 -44 -3 -52 -7 -19 -12 -261
-13 -277 -2 -7 5 -28 7 -48 4 -23 -4 -47 -1 -65 9 -17 8 -39 12 -53 8 -16 -4
-34 0 -48 10 -12 9 -38 16 -56 16 -19 0 -45 9 -59 20 -14 11 -36 20 -49 20
-13 0 -34 11 -48 25 -14 14 -36 25 -50 25 -18 0 -30 9 -41 30 -8 16 -27 33
-40 36 -34 8 -31 27 11 82 1 2 23 -10 49 -28 110 -75 272 -123 480 -141 345
-30 702 57 848 205 51 52 52 53 72 35 19 -18 19 -19 -7 -46z m-64 -185 c-46
-89 -198 -196 -353 -248 -192 -64 -453 -72 -657 -19 -100 26 -245 96 -306 148
-42 38 -108 124 -108 142 0 16 28 -3 38 -26 7 -14 25 -28 45 -33 19 -6 44 -19
56 -31 11 -11 33 -23 48 -26 16 -4 45 -16 66 -27 21 -11 48 -18 59 -15 13 4
31 -2 47 -14 19 -15 34 -19 58 -14 22 4 41 0 57 -10 17 -11 35 -15 55 -10 17
4 46 1 65 -6 25 -9 41 -10 58 -2 15 6 31 6 50 -1 20 -7 37 -7 58 1 18 7 42 8
58 3 18 -5 39 -3 58 5 16 7 44 10 61 7 21 -3 42 2 58 12 15 10 34 14 50 10 16
-4 36 1 58 15 19 12 48 21 66 21 19 0 38 8 48 20 10 11 30 20 45 20 16 0 41
12 60 28 18 16 46 32 61 36 16 4 33 17 39 31 6 14 13 23 15 21 3 -2 -3 -19
-13 -38z m66 -101 c0 -5 -11 -20 -25 -33 -14 -13 -25 -32 -25 -43 0 -13 -12
-27 -30 -36 -17 -9 -36 -27 -42 -40 -6 -14 -19 -25 -29 -25 -10 0 -34 -13 -52
-30 -19 -16 -44 -30 -54 -30 -11 0 -32 -9 -46 -20 -14 -11 -38 -20 -55 -20
-16 0 -40 -9 -53 -19 -16 -13 -34 -17 -52 -14 -16 3 -37 -1 -53 -11 -17 -12
-35 -15 -55 -11 -20 5 -38 1 -55 -9 -19 -13 -29 -14 -46 -5 -16 8 -30 8 -57
-1 -24 -7 -44 -8 -61 -2 -15 6 -34 6 -49 0 -16 -6 -34 -5 -53 3 -15 6 -42 9
-59 5 -20 -4 -39 0 -55 10 -14 10 -35 14 -50 11 -16 -3 -40 3 -60 15 -21 12
-41 17 -55 13 -14 -5 -28 0 -44 15 -12 11 -34 22 -48 24 -14 1 -39 15 -57 29
-17 15 -40 27 -50 27 -10 0 -25 11 -34 25 -9 13 -30 32 -46 40 -17 9 -30 24
-30 34 0 9 -11 28 -25 41 -29 27 -31 37 -9 61 14 16 19 13 67 -35 231 -231
738 -296 1116 -143 96 39 170 87 235 153 56 55 63 59 79 46 9 -8 17 -20 17
-25z m-97 -234 c-104 -153 -338 -269 -585 -291 -304 -27 -609 82 -748 267 -49
65 -52 85 -6 37 18 -20 42 -36 53 -36 11 0 30 -11 43 -25 13 -14 34 -25 48
-25 13 0 35 -9 49 -20 15 -12 41 -20 63 -20 21 0 43 -6 49 -14 11 -14 65 -24
161 -30 25 -2 57 -8 72 -14 19 -8 36 -8 57 -1 21 8 36 7 51 -1 13 -7 32 -9 48
-4 15 4 50 9 77 10 115 6 156 11 167 22 7 7 31 12 54 12 25 0 47 6 54 15 7 8
27 15 45 15 21 0 45 9 63 25 17 14 41 25 54 25 14 0 33 9 44 21 10 12 35 28
55 36 20 8 41 25 48 40 6 14 14 23 18 20 3 -3 -12 -32 -34 -64z"/>
<path d="M6537 11065 c-85 -65 -48 -106 38 -42 30 22 44 38 42 52 -3 32 -30
28 -80 -10z"/>
<path d="M6127 10906 c-3 -8 7 -41 23 -75 22 -45 34 -61 50 -61 27 0 26 26 -4
95 -18 39 -30 55 -44 55 -11 0 -22 -6 -25 -14z"/>
<path d="M7020 10907 c-34 -9 -45 -17 -45 -32 0 -18 6 -20 53 -18 61 3 94 18
90 41 -4 21 -39 24 -98 9z"/>
<path d="M7188 10673 c-25 -29 -68 -108 -68 -125 0 -22 27 -30 44 -13 8 8 29
40 46 70 26 45 30 59 20 70 -16 19 -24 19 -42 -2z"/>
<path d="M7532 10469 c-13 -22 -43 -54 -68 -72 -48 -34 -62 -77 -25 -77 55 0
178 143 151 175 -20 24 -33 18 -58 -26z"/>
<path d="M7010 10149 c-91 -39 -225 -68 -360 -77 -106 -6 -115 -9 -115 -27 0
-19 6 -20 135 -19 146 1 262 24 383 78 57 26 68 41 45 64 -15 15 -10 16 -88
-19z"/>
<path d="M7434 10029 c-29 -30 -144 -91 -196 -104 -21 -5 -28 -13 -28 -31 0
-30 17 -31 95 -4 103 35 214 121 202 154 -10 25 -41 19 -73 -15z"/>
<path d="M5893 10004 c-22 -57 228 -184 362 -184 30 0 35 3 35 24 0 26 -6 28
-101 41 -55 7 -168 60 -223 104 -43 34 -64 39 -73 15z"/>
<path d="M9049 9622 c-14 -12 -20 -25 -16 -35 9 -23 40 -21 62 3 15 16 15 22
5 35 -16 19 -23 19 -51 -3z"/>
<path d="M9240 9562 c-44 -36 0 -72 46 -38 15 12 17 19 8 32 -15 26 -28 27
-54 6z"/>
<path d="M8892 9428 c-17 -17 -15 -45 5 -53 21 -8 55 29 46 50 -6 18 -35 19
-51 3z"/>
<path d="M9382 9358 c-17 -17 -15 -48 4 -55 21 -8 57 28 48 50 -7 20 -35 22
-52 5z"/>
<path d="M9125 9266 c-22 -16 -14 -46 14 -46 26 0 52 27 45 45 -8 19 -34 19
-59 1z"/>
<path d="M8897 9193 c-16 -15 -6 -43 17 -49 30 -7 46 1 46 26 0 24 -46 41 -63
23z"/>
<path d="M9299 9171 c-23 -19 -23 -21 -7 -37 14 -15 22 -16 43 -6 27 13 32 31
13 50 -16 16 -22 15 -49 -7z"/>
<path d="M4895 15024 c6 -19 20 -41 31 -50 10 -8 13 -13 7 -9 -16 8 -16 4 2
-70 23 -98 19 -189 -13 -265 -20 -48 -34 -67 -53 -74 -72 -25 -172 40 -283
183 -92 119 -163 218 -178 251 -7 14 -13 26 -14 28 -4 6 -64 -28 -64 -36 1 -7
23 -38 128 -175 23 -31 42 -59 42 -63 0 -4 28 -39 63 -78 120 -137 154 -157
239 -146 67 10 153 62 182 110 22 39 36 142 26 195 -4 22 -9 31 -10 20 -1 -12
-7 -1 -15 25 -8 24 -12 46 -10 48 2 2 -7 29 -21 59 -13 31 -24 61 -24 67 0 6
-11 12 -23 12 -23 2 -23 0 -12 -32z"/>
<path d="M11245 14819 c9 -17 31 -37 51 -45 42 -18 43 -33 2 -75 -17 -19 -65
-72 -106 -119 -41 -47 -80 -88 -86 -92 -7 -4 -29 4 -49 18 l-37 25 12 -28 c7
-15 16 -34 22 -41 7 -10 -10 -33 -64 -87 l-73 -74 17 -25 c9 -14 20 -26 24
-26 4 0 41 34 82 75 45 45 83 75 95 75 35 -1 60 -28 61 -68 1 -20 6 -80 12
-132 6 -52 13 -117 15 -145 5 -57 20 -99 38 -111 11 -7 10 72 -6 251 -7 90 -8
135 -3 141 6 5 99 -18 143 -37 50 -21 95 -26 136 -17 24 5 57 12 72 15 42 8
68 56 60 108 -14 92 -75 196 -167 285 -45 44 -58 62 -48 68 17 11 6 58 -15 67
-9 3 -26 -3 -38 -15 l-23 -21 -54 30 c-30 17 -62 31 -72 31 -15 0 -15 -2 -1
-31z m218 -120 c11 0 17 -5 14 -12 -2 -7 20 -37 50 -67 29 -30 68 -84 85 -119
30 -59 31 -65 17 -89 -8 -15 -30 -37 -49 -50 -32 -22 -42 -24 -115 -19 -49 3
-109 16 -155 32 -94 34 -107 41 -120 66 -9 17 -5 27 29 66 23 25 41 50 41 54
0 5 30 40 67 79 58 61 72 70 93 65 14 -3 33 -6 43 -6z"/>
<path d="M4271 14719 c-29 -5 -74 -18 -99 -29 -24 -11 -53 -20 -63 -20 -32 0
-76 -47 -90 -97 -9 -30 -14 -97 -14 -183 0 -126 2 -139 27 -191 44 -91 138
-158 221 -159 89 0 196 62 247 145 43 71 58 283 24 345 -48 87 -136 190 -164
190 -4 0 -14 2 -22 4 -7 2 -37 0 -67 -5z m96 -48 c86 -62 143 -167 143 -264 0
-68 -23 -175 -48 -223 -39 -76 -112 -122 -171 -107 -106 25 -206 133 -230 248
-14 72 16 272 47 308 21 23 27 22 38 -10 l9 -28 24 39 c43 69 122 85 188 37z"/>
<path d="M11654 14163 c-32 -27 -79 -64 -105 -83 -117 -88 -249 -193 -249
-199 0 -3 11 -19 24 -36 l23 -29 59 50 c33 27 82 67 109 89 28 21 69 55 91 74
23 20 50 43 61 51 65 49 84 71 78 89 -14 45 -30 43 -91 -6z"/>
<path d="M11880 14083 c-48 -18 -100 -111 -100 -180 0 -23 9 -82 21 -130 11
-48 23 -127 26 -175 l6 -87 -26 -6 c-18 -5 -42 0 -74 16 -57 28 -202 164 -245
231 -17 26 -33 48 -34 48 -12 0 -34 -65 -28 -82 9 -30 126 -153 142 -150 8 2
12 -4 10 -14 -2 -10 14 -30 42 -50 83 -63 105 -74 141 -74 30 0 43 7 68 35 16
19 35 53 41 76 15 55 8 166 -17 264 -32 125 -35 170 -15 195 16 20 20 20 67 8
28 -7 64 -22 80 -34 17 -12 39 -25 51 -28 32 -10 75 -61 83 -97 l7 -33 22 22
c37 37 29 67 -34 126 -51 48 -81 67 -173 110 -36 17 -38 17 -61 9z"/>
<path d="M4110 13863 c-51 -54 -122 -137 -158 -186 -57 -76 -67 -85 -81 -74
-9 7 -56 47 -106 89 -106 88 -240 188 -302 225 -36 21 -50 24 -75 17 -48 -14
-43 -27 19 -53 74 -33 380 -273 450 -355 15 -17 33 -26 52 -26 25 0 32 7 51
47 33 71 124 188 227 292 84 85 91 95 75 107 -36 28 -58 16 -152 -83z"/>
<path d="M3209 13728 c-9 -18 -26 -53 -37 -78 -39 -82 -118 -226 -140 -257
-12 -17 -22 -35 -22 -41 0 -5 -18 -48 -40 -95 -52 -111 -52 -121 8 -143 26 -9
71 -27 101 -40 29 -13 59 -24 67 -24 7 0 28 -6 46 -14 18 -7 58 -22 88 -31 30
-10 106 -38 169 -62 82 -32 121 -42 142 -38 16 4 31 10 34 15 3 4 -50 29 -118
55 -67 26 -141 56 -164 66 l-43 18 15 41 c8 22 21 53 28 68 8 15 27 56 43 92
16 36 36 77 46 92 10 14 18 32 18 40 0 8 7 23 15 34 8 10 15 22 15 25 0 10
-51 30 -61 23 -15 -9 -84 -153 -108 -224 -11 -36 -32 -78 -45 -93 -13 -16 -31
-38 -38 -49 l-14 -21 -74 27 c-95 34 -113 50 -105 93 8 44 58 159 139 320 36
73 66 137 66 143 0 6 12 18 28 28 35 22 39 48 10 56 -42 11 -53 6 -69 -26z"/>
<path d="M12389 13526 c-68 -31 -239 -96 -254 -96 -2 0 -15 16 -28 35 l-23 34
-32 -19 c-34 -21 -38 -31 -22 -60 8 -15 6 -21 -9 -30 -21 -11 -231 -85 -293
-103 -31 -9 -38 -16 -43 -45 -3 -19 -4 -36 -2 -38 4 -5 101 27 252 82 143 52
133 51 166 15 16 -18 29 -34 29 -37 0 -3 18 -32 40 -66 32 -47 38 -63 29 -74
-6 -8 -18 -14 -25 -14 -8 0 -14 -4 -14 -8 0 -5 -16 -14 -35 -22 -19 -8 -35
-17 -35 -22 0 -4 -9 -8 -20 -8 -11 0 -20 -5 -20 -11 0 -5 -4 -8 -9 -5 -5 3
-21 -1 -37 -9 -16 -7 -50 -23 -75 -33 -40 -17 -47 -25 -52 -54 -2 -18 -3 -34
-2 -36 5 -6 137 49 251 104 61 30 116 54 122 54 14 0 42 -53 42 -80 0 -24 3
-24 40 -5 35 18 36 23 10 77 -11 23 -20 45 -20 48 0 3 48 30 106 60 76 39 109
61 115 79 21 54 4 53 -125 -10 -68 -34 -129 -58 -134 -55 -9 5 -112 183 -112
192 0 5 92 50 120 59 14 4 52 21 84 36 33 16 70 29 83 29 20 0 24 4 21 27 -4
34 -30 37 -89 9z"/>
<path d="M5940 5808 c0 -5 -22 -8 -50 -8 -54 0 -62 -10 -36 -45 10 -15 24 -19
54 -16 l40 2 6 -73 c3 -40 8 -163 11 -273 5 -198 5 -200 -14 -177 -26 30 -31
28 -20 -10 8 -30 79 -111 79 -91 0 5 27 7 61 5 38 -3 59 -1 56 5 -3 5 6 8 24
5 25 -4 28 -2 23 14 -6 16 -5 17 7 7 7 -7 18 -13 24 -13 5 0 4 4 -4 9 -10 6 2
14 40 29 30 11 55 16 57 11 6 -15 77 28 116 71 38 42 38 43 34 114 -2 53 -9
79 -25 102 -31 43 -87 69 -149 69 -57 0 -61 11 -15 38 44 26 81 75 81 107 0
67 -32 102 -105 116 -53 10 -295 11 -295 2z m313 -53 c31 -10 57 -23 57 -30 0
-41 -147 -148 -221 -160 -42 -7 -42 -8 -32 -44 6 -23 8 -23 72 -16 79 9 168
11 196 4 11 -3 39 -22 63 -44 32 -29 42 -46 42 -69 0 -63 -58 -124 -161 -169
-89 -40 -223 -60 -255 -39 -8 5 -13 91 -15 287 l-4 280 68 7 c38 3 71 9 73 11
9 8 58 1 117 -18z m107 -529 c0 -3 -4 -8 -10 -11 -5 -3 -10 -1 -10 4 0 6 5 11
10 11 6 0 10 -2 10 -4z"/>
<path d="M8060 5770 c-19 -5 -68 -9 -109 -9 -105 0 -161 -10 -161 -28 0 -8 14
-28 30 -45 l30 -30 0 -222 c0 -159 -3 -225 -12 -234 -9 -9 -7 -18 9 -39 28
-39 67 -40 336 -7 223 27 227 28 227 51 0 13 -7 26 -16 30 -8 3 -84 -2 -167
-12 -84 -9 -192 -18 -242 -18 l-90 -2 -3 90 c-4 129 -7 126 166 133 140 5 142
5 142 28 0 12 -4 25 -9 28 -4 3 -70 8 -146 10 -75 2 -138 6 -140 8 -1 2 -5 45
-7 95 l-4 93 33 5 c18 3 48 7 66 10 19 3 73 6 121 6 85 1 86 1 82 25 -3 13 -7
28 -11 34 -7 12 -74 12 -125 0z"/>
<path d="M7206 5738 c-11 -34 -26 -261 -22 -323 2 -38 4 -118 5 -177 1 -98 3
-108 22 -118 11 -7 23 -9 26 -7 3 3 4 49 4 101 -1 114 -17 107 169 75 67 -11
134 -18 149 -14 15 3 21 2 14 -3 -8 -5 11 -14 53 -23 l65 -15 -3 25 c-4 32
-33 43 -218 77 -74 14 -148 29 -164 33 l-30 6 69 54 c81 64 190 170 198 192 3
8 -3 20 -12 26 -15 9 -35 -6 -127 -96 -103 -100 -157 -141 -169 -129 -3 3 0
73 7 157 10 130 9 154 -3 162 -19 12 -29 11 -33 -3z m415 -476 c-7 -2 -18 1
-23 6 -8 8 -4 9 13 5 13 -4 18 -8 10 -11z"/>
<path d="M9557 5710 c-3 -22 -24 -78 -47 -126 -23 -48 -50 -106 -61 -130 -10
-24 -22 -44 -27 -44 -15 0 -161 196 -186 249 -12 28 -29 57 -36 66 -14 17 -50
20 -50 4 0 -23 64 -130 114 -191 28 -35 67 -85 86 -113 19 -27 39 -53 45 -57
6 -4 0 -31 -14 -70 -27 -72 -39 -128 -33 -146 7 -21 42 -14 42 9 0 24 42 153
72 218 11 25 44 96 72 156 70 148 81 182 66 200 -21 26 -37 16 -43 -25z"/>
<path d="M6770 5713 c0 -17 -13 -59 -29 -95 -16 -35 -39 -93 -51 -128 -12 -34
-44 -109 -71 -166 -27 -57 -56 -124 -63 -149 -14 -44 -14 -45 9 -45 18 0 26 8
35 38 7 20 23 56 37 80 l24 42 102 -1 c56 0 110 -4 120 -8 11 -4 33 -45 56
-101 62 -154 98 -220 121 -220 11 0 20 6 20 14 0 14 -32 96 -51 130 -15 25
-59 144 -59 156 0 6 9 10 21 10 45 0 10 54 -49 76 -1 1 -8 23 -16 50 -7 27
-28 87 -46 134 -17 47 -38 101 -45 120 -9 24 -10 41 -3 53 12 23 10 25 -30 33
-30 6 -32 5 -32 -23z m58 -183 c17 -47 34 -106 38 -133 l6 -47 -81 2 c-44 1
-81 5 -81 8 0 4 12 35 26 71 14 35 27 70 29 79 16 94 22 117 30 108 1 -2 16
-41 33 -88z"/>
<path d="M8633 5732 c-6 -4 -13 -18 -14 -31 -3 -20 -15 -28 -62 -44 -39 -13
-55 -23 -49 -29 10 -10 29 -11 87 -6 29 3 30 2 36 -52 4 -30 10 -94 13 -143 6
-74 5 -88 -8 -92 -52 -16 -52 -17 -26 -28 14 -6 27 -13 30 -15 3 -2 7 -40 10
-85 5 -82 5 -82 34 -85 l29 -4 -7 90 c-6 76 -5 92 9 106 22 22 54 20 79 -4 12
-11 59 -50 106 -87 47 -36 88 -70 91 -75 8 -12 69 -28 69 -19 0 8 -55 58 -108
98 -77 59 -132 107 -132 114 0 5 15 18 33 29 17 10 37 24 44 29 7 6 17 11 23
11 23 0 79 47 104 87 44 74 31 116 -49 156 -48 23 -147 44 -187 39 -60 -7 -44
-19 30 -21 110 -3 182 -33 182 -75 0 -42 -17 -80 -50 -112 -51 -50 -171 -114
-214 -114 -33 0 -34 0 -40 58 -4 31 -10 93 -12 136 -6 77 -5 79 23 102 l28 23
-27 1 c-18 0 -28 5 -28 15 0 18 -32 36 -47 27z"/>
</g>
</svg>
